<?xml version="1.0" encoding="utf-8"?>
<!-- Generator: Adobe Illustrator 22.0.1, SVG Export Plug-In . SVG Version: 6.00 Build 0)  -->
<svg version="1.1" id="Layer_1" xmlns="http://www.w3.org/2000/svg" xmlns:xlink="http://www.w3.org/1999/xlink" x="0px" y="0px"
	 viewBox="0 0 391 424.4" style="enable-background:new 0 0 391 424.4;" xml:space="preserve">
<style type="text/css">
	.st0{fill:url(#SVGID_1_);}
</style>
<linearGradient id="SVGID_1_" gradientUnits="userSpaceOnUse" x1="14.1813" y1="318.8314" x2="287.6217" y2="160.9606">
	<stop  offset="0" style="stop-color:#57EEC0"/>
	<stop  offset="9.297097e-03" style="stop-color:#56EDC2"/>
	<stop  offset="1.328674e-02" style="stop-color:#51EAC9"/>
	<stop  offset="1.625043e-02" style="stop-color:#4AE4D6"/>
	<stop  offset="1.794872e-02" style="stop-color:#43DFE1"/>
	<stop  offset="0.4471" style="stop-color:#43DDE0"/>
	<stop  offset="0.64" style="stop-color:#43D6DE"/>
	<stop  offset="0.7855" style="stop-color:#44C9D9"/>
	<stop  offset="0.9065" style="stop-color:#45B7D3"/>
	<stop  offset="1" style="stop-color:#46A3CC"/>
</linearGradient>
<path class="st0" d="M193.7,414.9l2.4,2.5l2.3-2.5l2.5-2.8l86.9-96.1h89.3L196.1,7l-1.7,2.9L12.6,316.1h86.9l91.8,96.3L193.7,414.9z
	 M290.7,306.4C280.4,273,235.9,127.8,214.2,57l146.1,249.4H290.7z M178.6,55.4c-21.6,67.5-69.3,216.3-80.4,251H29.5L178.6,55.4z
	 M107.1,310c11.2-35,64.7-201.8,84.1-262.6v350.9L107.1,310z M200.9,397.7V46.7c19.5,63.7,69.2,225.7,80.4,262.2l-0.7,0.7
	L200.9,397.7z"/>
</svg>
